<?xml version="1.0" standalone="no"?>
<!DOCTYPE svg PUBLIC "-//W3C//DTD SVG 20010904//EN"
 "http://www.w3.org/TR/2001/REC-SVG-20010904/DTD/svg10.dtd">
<svg version="1.0" xmlns="http://www.w3.org/2000/svg"
 width="4852.000000pt" height="1576.000000pt" viewBox="0 0 4852.000000 1576.000000"
 preserveAspectRatio="xMidYMid meet">

<g transform="translate(0.000000,1576.000000) scale(0.100000,-0.100000)"
fill="#000000" stroke="none">
<path d="M8359 15316 c-186 -94 -332 -171 -498 -262 -73 -41 -135 -74 -138
-74 -2 0 -52 -26 -111 -59 -59 -32 -145 -79 -192 -103 -117 -62 -337 -181
-445 -241 -49 -28 -112 -62 -140 -75 -27 -13 -97 -50 -155 -82 -58 -31 -154
-83 -215 -115 -60 -31 -114 -61 -120 -65 -5 -4 -48 -27 -95 -50 -47 -24 -144
-76 -217 -117 -73 -40 -134 -73 -136 -73 -3 0 -42 -21 -88 -46 -99 -55 -840
-454 -884 -476 -16 -8 -47 -24 -67 -36 -20 -11 -99 -53 -175 -93 -76 -39 -151
-79 -168 -89 -16 -10 -102 -56 -190 -103 -298 -158 -340 -180 -499 -269 -87
-48 -161 -88 -163 -88 -2 0 -35 -18 -71 -39 -37 -21 -123 -68 -192 -104 -252
-130 -454 -238 -466 -247 -6 -6 -78 -46 -160 -89 -268 -141 -328 -173 -369
-196 -22 -12 -78 -43 -125 -67 -150 -80 -213 -115 -279 -152 -35 -20 -105 -58
-155 -83 -50 -26 -107 -57 -126 -69 -33 -20 -95 -52 -455 -239 -82 -43 -162
-86 -176 -96 -14 -10 -97 -55 -185 -100 -87 -45 -163 -85 -169 -89 -11 -9 -77
-44 -400 -212 -126 -66 -241 -127 -253 -135 l-24 -15 3 -456 c1 -251 5 -478 8
-504 l6 -47 45 28 c25 15 151 83 280 151 129 68 298 158 375 200 77 42 174 95
215 117 205 110 778 416 870 465 171 90 653 348 685 368 39 23 115 64 250 135
61 32 166 88 235 125 69 37 222 118 340 180 207 109 330 175 565 303 255 138
958 515 1355 725 47 24 108 57 135 72 28 15 84 46 125 68 41 22 246 132 455
244 209 113 463 249 565 303 102 54 316 168 475 253 160 85 326 174 370 197
409 217 580 309 700 375 180 99 379 200 395 200 7 0 77 -36 154 -79 167 -93
183 -102 391 -217 310 -170 459 -249 1000 -534 160 -84 337 -178 395 -210 58
-31 139 -75 180 -97 134 -72 420 -227 635 -345 116 -63 264 -143 330 -178 66
-34 152 -80 190 -100 76 -41 452 -241 605 -323 52 -28 210 -113 350 -190 140
-77 316 -172 390 -212 74 -40 191 -103 260 -140 69 -37 208 -111 310 -165 231
-121 574 -305 790 -422 246 -135 263 -144 415 -226 77 -41 145 -78 150 -82 11
-8 243 -132 430 -230 66 -35 138 -73 160 -86 22 -12 162 -87 310 -167 149 -79
295 -158 325 -174 59 -32 199 -107 346 -184 l91 -48 7 46 c3 25 6 248 6 495 0
436 -3 488 -31 488 -5 0 -96 47 -202 103 -106 57 -277 148 -382 202 -104 54
-233 121 -285 150 -52 29 -225 124 -385 210 -375 203 -722 393 -855 465 -99
55 -473 254 -1235 660 -44 23 -98 53 -120 65 -22 13 -94 52 -160 88 -66 35
-196 106 -290 157 -199 108 -213 116 -620 332 -170 91 -368 196 -440 233 -71
37 -143 75 -160 85 -26 15 -378 205 -610 330 -44 23 -118 64 -165 90 -148 82
-427 232 -625 335 -71 37 -148 78 -170 90 -22 12 -71 39 -110 60 -38 21 -113
61 -165 90 -52 28 -169 91 -260 140 -91 48 -268 144 -395 213 -126 68 -264
143 -305 165 -41 22 -100 55 -131 73 -121 72 -107 73 -270 -10z"/>
<path d="M6499 12252 c-24 -16 -89 -52 -144 -81 -55 -30 -131 -71 -170 -91
-38 -21 -104 -56 -145 -77 -41 -22 -124 -67 -185 -100 -239 -131 -515 -280
-705 -380 -58 -30 -139 -74 -180 -98 -41 -23 -176 -95 -300 -160 -378 -198
-1395 -742 -1560 -835 -47 -26 -119 -65 -160 -85 -41 -21 -104 -54 -140 -75
-36 -21 -94 -52 -130 -70 -36 -18 -105 -57 -155 -85 -49 -29 -126 -70 -170
-92 -123 -63 -404 -221 -437 -246 l-29 -23 1 -3269 c0 -1856 4 -3273 9 -3278
5 -5 825 -10 1879 -10 1520 -2 1873 -4 1884 -15 10 -10 14 -195 19 -920 3
-499 7 -907 8 -907 24 -3 5580 6 5589 10 9 3 12 194 12 907 0 553 4 909 10
918 8 13 227 15 1894 11 l1884 -3 11 20 c8 15 11 930 11 3272 l0 3251 -26 24
c-25 23 -58 42 -314 180 -63 34 -167 90 -230 125 -63 34 -180 97 -260 140
-270 143 -325 173 -440 235 -63 34 -150 81 -193 104 -43 23 -117 63 -165 90
-105 58 -338 183 -557 299 -88 47 -221 117 -295 157 -74 40 -175 94 -225 120
-49 26 -175 93 -280 150 -104 56 -269 144 -365 195 -96 51 -231 123 -300 160
-69 37 -199 107 -290 155 -91 48 -199 107 -240 130 -41 23 -122 67 -180 98
-58 30 -154 82 -215 116 -60 33 -121 61 -135 61 -14 0 -86 -35 -160 -77 -74
-41 -180 -99 -235 -128 -55 -29 -120 -64 -145 -78 -136 -75 -569 -310 -780
-421 -85 -45 -243 -131 -350 -191 -224 -125 -241 -130 -325 -78 -66 40 -203
118 -285 161 -36 18 -126 65 -200 104 -216 114 -629 335 -685 368 -54 31 -148
83 -220 120 -38 20 -148 77 -242 128 -95 51 -183 92 -196 92 -13 0 -43 -13
-68 -28z m183 -1025 c29 -18 141 -80 248 -137 107 -56 258 -137 335 -179 77
-42 153 -83 168 -91 29 -14 77 -58 77 -69 0 -3 -60 -37 -132 -76 -141 -74
-233 -124 -418 -225 -152 -82 -349 -189 -430 -233 -262 -141 -426 -231 -435
-237 -5 -4 -75 -43 -155 -85 -80 -43 -169 -93 -198 -111 l-53 -34 3 -2813 c2
-1546 -1 -2822 -5 -2833 l-8 -21 -1437 -5 c-860 -3 -1441 -2 -1447 4 -10 9
-25 4869 -16 5065 l3 82 82 42 c44 23 110 59 146 79 36 21 182 100 325 177
307 165 794 426 915 490 107 57 405 218 710 383 129 70 271 146 315 170 44 23
107 57 140 75 138 75 202 109 435 232 135 72 313 168 395 213 372 206 342 197
437 137z m3858 -33 c209 -121 732 -406 1120 -612 215 -113 420 -223 1130 -607
249 -135 526 -283 679 -365 363 -193 462 -245 551 -293 128 -68 172 -98 187
-127 10 -20 13 -547 13 -2541 0 -2463 0 -2517 -19 -2540 l-19 -24 -1423 -7
c-858 -4 -1429 -3 -1440 2 -14 8 -18 32 -24 147 -5 76 -5 1135 -1 2353 3 1218
3 2430 -1 2692 l-6 478 -156 88 c-86 49 -210 117 -276 152 -162 85 -369 200
-485 270 -52 31 -144 83 -205 114 -60 32 -115 62 -121 67 -11 9 -192 106 -420
226 -67 34 -127 70 -134 78 -18 21 -1 39 69 71 53 25 274 145 441 239 41 23
116 63 165 88 50 25 118 61 150 81 33 20 71 36 85 36 14 0 77 -30 140 -66z
m-1972 -983 c37 -21 150 -82 252 -136 102 -54 212 -112 245 -130 109 -59 207
-111 495 -265 490 -263 561 -300 698 -372 73 -38 137 -78 142 -88 7 -12 9
-909 8 -2577 l-3 -2558 -1885 -6 c-1037 -3 -1895 -4 -1906 -2 -15 3 -25 16
-31 41 -6 22 -8 1061 -5 2567 l3 2530 22 17 c12 10 58 36 102 59 44 23 143 76
220 119 77 42 230 125 340 185 110 59 247 133 305 165 58 32 265 143 460 247
195 104 373 201 395 216 22 14 48 26 58 26 10 1 49 -16 85 -38z m1831 -7030
c7 -13 11 -166 11 -455 0 -371 -2 -437 -15 -449 -13 -13 -249 -16 -1897 -19
-1546 -3 -1886 -1 -1898 10 -23 19 -28 892 -6 915 13 13 249 15 1905 16 1878
2 1890 2 1900 -18z"/>
<path d="M20940 11390 c-346 -18 -698 -99 -986 -226 -673 -298 -1173 -902
-1327 -1604 -53 -238 -61 -326 -61 -620 0 -296 12 -406 69 -630 120 -473 407
-898 844 -1249 328 -264 740 -477 1408 -726 474 -178 679 -268 892 -394 336
-199 482 -372 559 -666 31 -118 42 -219 42 -385 0 -380 -91 -633 -304 -845
-134 -133 -268 -204 -474 -251 -168 -38 -275 -47 -486 -41 -271 8 -441 44
-643 137 -308 143 -536 407 -637 741 -54 178 -67 273 -75 534 l-6 210 -709 3
-709 2 6 -222 c6 -230 23 -396 57 -561 157 -766 642 -1402 1351 -1771 360
-188 707 -288 1139 -327 163 -15 606 -6 766 15 145 19 377 67 494 102 736 219
1297 748 1526 1439 91 277 126 506 127 840 1 655 -165 1175 -512 1604 -158
195 -404 403 -686 581 -244 153 -667 350 -1035 480 -351 125 -560 211 -753
310 -473 243 -717 494 -803 827 -63 244 -33 605 71 846 50 116 92 181 174 269
208 222 472 319 871 320 240 1 448 -41 613 -123 147 -73 239 -146 333 -263
146 -183 230 -379 279 -661 12 -68 32 -389 35 -552 0 -10 148 -13 705 -13
l705 0 0 170 c0 482 -100 922 -300 1316 -129 254 -277 462 -460 644 -440 439
-1050 701 -1720 739 -102 6 -198 10 -215 9 -16 -1 -91 -4 -165 -8z"/>
<path d="M41879 11389 c-95 -8 -196 -35 -279 -76 -80 -39 -226 -188 -272 -278
-156 -306 -135 -677 53 -945 80 -114 208 -197 374 -241 114 -30 326 -30 440 0
217 58 353 169 449 366 68 140 81 201 81 385 0 196 -11 246 -86 400 -45 90
-64 117 -138 190 -64 64 -105 95 -161 123 -134 66 -286 91 -461 76z"/>
<path d="M24990 9895 l0 -745 -470 0 -470 0 0 -595 0 -595 470 0 470 0 0
-1884 c0 -1166 4 -1932 10 -2012 26 -337 94 -621 196 -827 104 -209 186 -319
342 -456 140 -124 301 -205 512 -259 101 -26 115 -27 370 -26 259 0 268 1 420
32 145 31 427 106 439 118 6 5 19 674 20 1029 l1 211 -117 -39 c-240 -77 -305
-91 -453 -91 -117 -1 -141 2 -181 20 -55 26 -83 54 -114 115 -42 81 -55 156
-65 354 -10 213 -14 3596 -4 3669 l7 46 458 0 459 0 0 595 0 595 -462 2 -463
3 -1 740 0 740 -687 3 -687 2 0 -745z"/>
<path d="M30195 9253 c-232 -21 -439 -64 -640 -133 -153 -53 -260 -103 -416
-197 -360 -216 -637 -511 -814 -868 -139 -282 -185 -468 -193 -782 l-4 -203
686 0 686 0 0 88 c0 333 90 540 303 701 166 126 383 177 670 160 299 -19 502
-127 592 -314 76 -156 97 -327 93 -720 l-3 -270 -425 -6 c-441 -6 -570 -16
-805 -60 -360 -68 -678 -188 -940 -357 -264 -170 -467 -367 -622 -604 -66
-101 -175 -318 -211 -423 -137 -397 -164 -914 -71 -1360 66 -313 209 -606 402
-822 268 -302 599 -478 1047 -560 133 -25 167 -27 415 -27 242 -1 282 2 382
22 218 44 428 130 608 250 85 56 266 204 273 223 11 28 30 -1 49 -73 27 -104
77 -243 103 -285 l20 -33 668 0 669 0 6 92 c9 127 -4 231 -46 373 -59 195 -92
369 -128 660 -8 61 -14 671 -19 1920 -6 1626 -8 1842 -23 1939 -42 281 -99
480 -192 671 -252 519 -717 847 -1360 960 -199 35 -583 54 -760 38z m912
-3659 l53 -6 0 -613 0 -612 -24 -44 c-107 -190 -366 -390 -626 -483 -250 -90
-597 -84 -806 13 -193 90 -284 291 -301 661 -13 295 61 522 226 693 195 203
463 323 831 371 63 9 138 17 165 18 125 7 433 8 482 2z"/>
<path d="M46325 9244 c-260 -26 -452 -81 -680 -195 -118 -60 -277 -166 -383
-257 l-50 -42 -6 82 c-3 46 -8 136 -12 201 l-6 117 -654 0 -654 0 0 -3275 0
-3275 685 0 685 0 2 2313 3 2314 50 97 c88 171 264 389 392 486 188 142 397
203 624 179 130 -13 197 -31 305 -84 178 -86 270 -226 343 -520 45 -182 45
-175 48 -2537 l4 -2248 684 0 685 0 0 2118 c0 2103 -4 2408 -35 2693 -49 450
-163 818 -342 1110 -190 309 -468 529 -805 640 -263 86 -570 115 -883 83z"/>
<path d="M33030 9144 c0 -3 31 -110 69 -238 38 -127 99 -330 134 -451 108
-364 641 -2165 752 -2540 143 -486 309 -1045 355 -1200 125 -418 197 -663 360
-1215 99 -338 185 -625 190 -638 9 -22 -18 -125 -155 -592 -94 -321 -180 -499
-311 -648 -169 -193 -458 -260 -874 -203 -80 10 -148 16 -153 12 -4 -4 -6
-275 -5 -602 l3 -594 145 -38 c348 -90 500 -108 705 -83 175 21 304 55 442
117 505 228 891 729 1136 1474 31 94 337 1153 681 2355 1149 4018 1448 5065
1453 5077 4 10 -143 13 -721 13 l-726 0 -10 -22 c-5 -13 -226 -897 -492 -1965
-266 -1069 -485 -1943 -488 -1943 -3 0 -15 37 -27 83 -162 643 -424 1678 -494
1952 -49 193 -173 681 -275 1085 -102 404 -190 752 -195 773 l-10 37 -744 0
c-410 0 -745 -3 -745 -6z"/>
<path d="M41280 5875 l0 -3275 685 0 685 0 0 3275 0 3275 -685 0 -685 0 0
-3275z"/>
</g>
</svg>
